<svg xmlns="http://www.w3.org/2000/svg" width="64" height="64" viewBox="0 0 64 64" fill="none">
  <rect width="64" height="64" rx="18" fill="#0A0C12"/>
  <circle cx="32" cy="19" r="18" fill="url(#paint0_radial)"/>
  <path d="M32 10 49 52H41.8l-3.9-9.9H26.1L22.2 52H15L32 10Zm3.3 25.9L32 27.1l-3.4 8.8h6.7Z" fill="url(#paint1_linear)"/>
  <path d="M32 20.6a11.4 11.4 0 1 1 0 22.8 11.4 11.4 0 0 1 0-22.8Zm0 4.2a7.2 7.2 0 1 0 0 14.4 7.2 7.2 0 0 0 0-14.4Z" fill="url(#paint1_linear)" opacity=".85"/>
  <circle cx="32" cy="32" r="2.35" fill="url(#paint1_linear)"/>
  <path d="M32 14v6M32 44v6M14 32h6M44 32h6" stroke="#7BF7FF" stroke-opacity=".7" stroke-width="1.6" stroke-linecap="round"/>
  <defs>
    <radialGradient id="paint0_radial" cx="0" cy="0" r="1" gradientUnits="userSpaceOnUse" gradientTransform="translate(32 19) rotate(90) scale(18)">
      <stop stop-color="#7BF7FF" stop-opacity=".45"/>
      <stop offset="1" stop-color="#7BF7FF" stop-opacity="0"/>
    </radialGradient>
    <linearGradient id="paint1_linear" x1="8" y1="8" x2="56" y2="56" gradientUnits="userSpaceOnUse">
      <stop stop-color="#14F195"/>
      <stop offset=".48" stop-color="#7BF7FF"/>
      <stop offset="1" stop-color="#9945FF"/>
    </linearGradient>
  </defs>
</svg>
