<svg xmlns="http://www.w3.org/2000/svg" width="32" height="32" viewBox="0 0 32 32" fill="none">
  <rect width="32" height="32" rx="8" fill="#0f1722"/>
  <path d="M10 10.5C10 8.84315 11.3431 7.5 13 7.5H22V10H13C12.4477 10 12 10.4477 12 11V12C12 12.5523 12.4477 13 13 13H18.5C20.9853 13 23 15.0147 23 17.5V18.5C23 21.2614 20.7614 23.5 18 23.5H9V21H18C19.3807 21 20.5 19.8807 20.5 18.5V17.5C20.5 16.3954 19.6046 15.5 18.5 15.5H13C11.3431 15.5 10 14.1569 10 12.5V10.5Z" fill="#14f195"/>
  <path d="M8 9H11V23H8V9Z" fill="#5bffbf" fill-opacity="0.65"/>
</svg>
